<svg width="42" height="42" viewBox="0 0 42 42" fill="none" xmlns="http://www.w3.org/2000/svg">
<path d="M8.33333 40C11.8311 40 14.6667 37.1645 14.6667 33.6667C14.6667 30.1689 11.8311 27.3333 8.33333 27.3333C4.83553 27.3333 2 30.1689 2 33.6667C2 37.1645 4.83553 40 8.33333 40Z" stroke="#2C49AE" stroke-width="3.95833" stroke-linecap="round" stroke-linejoin="round"/>
<path d="M14.6666 33.6667V6.22222" stroke="#2C49AE" stroke-width="3.95833" stroke-linecap="round" stroke-linejoin="round"/>
<path d="M40 2L14.6666 6.22222M40 10.4444L14.6666 14.6667" stroke="#2C49AE" stroke-width="3.95833" stroke-linecap="round"/>
<path d="M33.6667 35.7778C37.1645 35.7778 40 32.9422 40 29.4444C40 25.9466 37.1645 23.1111 33.6667 23.1111C30.1689 23.1111 27.3334 25.9466 27.3334 29.4444C27.3334 32.9422 30.1689 35.7778 33.6667 35.7778Z" stroke="#2C49AE" stroke-width="3.95833" stroke-linecap="round" stroke-linejoin="round"/>
<path d="M40 29.4444V2" stroke="#2C49AE" stroke-width="3.95833" stroke-linecap="round" stroke-linejoin="round"/>
</svg>
