<svg width="225" height="68" viewBox="0 0 225 68" fill="none" xmlns="http://www.w3.org/2000/svg">
<path fill-rule="evenodd" clip-rule="evenodd" d="M33.7811 43.0284C32.4839 42.6575 32.1425 42.5306 31.5573 42.2573C31.1964 42.0817 30.621 41.7108 30.2698 41.418C29.4408 40.7445 28.4654 39.4367 28.4654 39.0072C28.4654 38.9389 28.3777 38.7144 28.2704 38.5095C28.1631 38.3143 28.0753 37.9824 28.0753 37.7677C28.0753 37.5627 27.9973 37.0259 27.9095 36.577C27.7047 35.5131 27.7047 33.6782 27.9095 32.5363C27.9973 32.058 28.0753 31.531 28.0753 31.3651C28.0753 31.004 28.5727 29.7742 28.9726 29.1203C29.3823 28.4566 29.9675 27.8612 30.6307 27.4025C30.9331 27.1975 31.2159 27.0218 31.255 27.0218C31.294 27.0218 31.4988 26.934 31.7231 26.8364C32.6009 26.4265 33.6153 26.1532 34.2688 26.1434C34.5419 26.1434 35.1564 26.0751 35.6343 25.997C36.7657 25.8116 37.4972 25.8116 38.5701 26.0068C39.0481 26.0946 39.9454 26.1727 40.5599 26.1922C41.3596 26.202 41.7888 26.2606 42.0717 26.3777C42.2862 26.4655 42.7349 26.5729 43.0763 26.6022L43.681 26.6607L43.6615 28.7689L43.6322 30.8771L43.047 30.8478C42.7251 30.8283 42.1789 30.7307 41.8278 30.6331C41.4767 30.5355 40.6867 30.3988 40.0722 30.3403C39.4577 30.2817 38.6677 30.1939 38.3165 30.1451C37.663 30.0475 36.122 30.1548 35.4782 30.3403C35.2929 30.3988 35.0296 30.4379 34.8735 30.4379C34.5614 30.4379 33.6641 30.9259 33.3715 31.2382C33.2642 31.3651 33.0886 31.6286 32.9716 31.8336C32.7668 32.1849 32.757 32.3216 32.757 34.5469V36.8893L33.0203 37.348C33.4007 38.0312 33.6251 38.2362 34.3176 38.568L34.9516 38.8804H37.7801C40.2282 38.8804 40.6671 38.8511 41.0475 38.7047C41.2914 38.6168 41.7986 38.4997 42.1789 38.4509C42.5593 38.4021 43.008 38.2947 43.1836 38.2069C43.3494 38.1191 43.5347 38.0703 43.5835 38.0995C43.7395 38.1971 43.7103 42.394 43.564 42.5111C43.4957 42.5697 43.0763 42.638 42.6374 42.6673C42.1985 42.7063 41.6718 42.8039 41.4669 42.9015C41.1353 43.0577 40.7062 43.0772 37.585 43.0967C35.6538 43.1065 33.9469 43.0772 33.7811 43.0284ZM73.6244 43.0675C72.8051 42.9894 71.0202 42.7063 70.7764 42.6185L70.5033 42.5209V34.6445V26.7584L70.7374 26.5436C71.0398 26.2508 72.2785 26.1044 73.6244 26.1923C74.1316 26.2215 74.8631 26.2118 75.2338 26.1532C75.6142 26.1044 76.8626 26.0068 78.0135 25.9385C79.6424 25.8507 80.3056 25.8507 80.9884 25.9483L81.1264 25.9649C81.6044 26.0224 82.235 26.0982 82.6075 26.1337C83.261 26.202 84.2168 26.4851 84.646 26.7388C84.724 26.7876 84.8996 26.8852 85.0361 26.9438C85.9725 27.4025 86.7918 28.5249 86.7918 29.3643C86.7918 29.6376 86.86 29.9889 86.9381 30.1353C87.2014 30.6624 87.2209 31.1602 86.9966 32.0483C86.7235 33.0927 86.3626 33.649 85.6701 34.0687C85.3775 34.2443 85.1337 34.42 85.1337 34.4493C85.1337 34.4883 85.4848 34.7421 85.9139 35.0154C86.8698 35.64 87.1331 35.9719 87.4453 36.9479C87.7086 37.7775 87.6988 38.4314 87.4257 39.0951C87.3477 39.2805 87.2794 39.6221 87.2794 39.8369C87.2794 40.3054 86.8113 41.0666 86.1675 41.6327C85.7384 42.0134 85.6213 42.0817 84.841 42.4233C84.7712 42.4537 84.7051 42.4827 84.6421 42.5103L84.642 42.5103C84.3051 42.6579 84.057 42.7666 83.8001 42.8469C83.082 43.0712 82.2947 43.0739 79.3075 43.0843L78.55 43.087C76.0336 43.0967 73.8098 43.087 73.6244 43.0675ZM82.627 38.6461C82.8221 38.529 83.0757 38.2948 83.1829 38.1386C83.3878 37.8653 83.3878 37.8458 83.222 37.5628C83.0854 37.3383 82.9001 37.2309 82.3636 37.0552C81.7004 36.8405 81.5346 36.8308 78.5012 36.8308H75.3313L75.3021 37.6116L75.3019 37.6148C75.2752 38.283 75.2634 38.5783 75.405 38.717C75.5173 38.8268 75.7258 38.8382 76.0997 38.8586L76.1409 38.8609C76.5505 38.8804 78.1013 38.8901 79.5839 38.8804C82.1881 38.8706 82.2856 38.8609 82.627 38.6461ZM82.11 32.2923C82.5685 32.0581 82.7928 31.7555 82.7928 31.3846C82.7928 31.0235 82.5099 30.5453 82.2564 30.4769C80.647 30.0865 77.7795 30.0573 75.7215 30.4184L75.3313 30.4867L75.3021 31.3554C75.2826 31.8336 75.2923 32.2826 75.3216 32.3606C75.3606 32.4582 75.9946 32.4875 78.55 32.4875C81.5248 32.4875 81.7492 32.4778 82.11 32.2923ZM54.9074 42.5111C54.9659 42.5697 55.1024 42.638 55.2195 42.6575C55.3365 42.677 56.3021 42.677 57.3555 42.6575L57.3794 42.6571C59.2287 42.6282 59.2872 42.6273 59.4038 42.4135C59.4915 42.2573 59.5403 41.4082 59.5793 39.466C59.6183 37.3675 59.6573 36.6746 59.7646 36.4891C59.8427 36.3525 60.2035 35.8059 60.5742 35.2691C60.9448 34.7323 61.4422 34.0101 61.6763 33.6587C61.9104 33.3073 62.3493 32.6729 62.6517 32.2435C62.954 31.814 63.4417 31.1113 63.7343 30.6819C64.0172 30.2524 64.4561 29.618 64.6999 29.2667L64.7159 29.2437C65.6951 27.8315 65.7241 27.7897 65.7241 27.2073V27.1965C65.7241 26.9212 65.7241 26.7396 65.6381 26.6198C65.4712 26.3874 64.9808 26.3874 63.5393 26.3874C62.5151 26.3874 61.569 26.4167 61.4325 26.4558C61.1009 26.5534 60.9351 26.7681 58.9453 29.9499C57.5896 32.1166 57.4043 32.3899 57.1994 32.4485C57.0922 32.4875 56.9849 32.468 56.9654 32.4094C56.9361 32.3118 56.8678 32.1947 54.9951 29.2179C53.5028 26.8462 53.4248 26.729 53.1517 26.5534C52.7421 26.2801 49.2796 26.2703 48.8504 26.5338C48.7431 26.6022 48.7041 26.8071 48.7138 27.2658C48.7236 27.7831 48.7724 27.9686 48.9577 28.2223C49.2308 28.5932 49.8355 29.4716 50.9572 31.1211C51.4156 31.7945 52.0301 32.6925 52.3324 33.1219C52.5925 33.4912 53.1195 34.2577 53.5907 34.9431L53.815 35.2691L54.7513 36.6355L54.7806 39.5148C54.8001 41.2716 54.8488 42.433 54.9074 42.5111ZM93.5705 42.6087L93.3266 42.5209L93.3461 34.664L93.3754 26.7974L93.6485 26.5924C93.9216 26.3875 93.9509 26.3875 101.295 26.3875H101.295C108.464 26.3875 108.659 26.3875 108.796 26.5729C108.903 26.7193 108.932 27.1585 108.932 28.5054C108.932 30.1158 108.923 30.2524 108.737 30.4379C108.552 30.6233 108.415 30.6331 103.49 30.6331C103.036 30.6331 102.619 30.6325 102.238 30.632C99.1347 30.6277 98.3276 30.6266 98.144 30.9643C98.0795 31.0831 98.092 31.2436 98.1089 31.4607L98.1089 31.4612L98.109 31.4615L98.109 31.4618L98.109 31.4623C98.115 31.5396 98.1216 31.6241 98.1254 31.7165L98.1547 32.4387L102.261 32.4875C105.567 32.5265 106.396 32.5656 106.533 32.6729C106.67 32.7901 106.689 33.0341 106.67 34.7714L106.64 36.7331L102.397 36.7819L98.1547 36.8307L98.1254 37.4944C98.1059 37.9044 98.1449 38.2167 98.2132 38.3045C98.3107 38.4216 99.1593 38.4412 103.461 38.4412C106.513 38.4412 108.649 38.4802 108.737 38.5388C108.942 38.6656 109.01 42.2086 108.815 42.4623C108.698 42.6282 108.191 42.638 101.247 42.6575C97.1598 42.677 93.707 42.6478 93.5705 42.6087ZM162.792 40.198C162.119 41.623 162.011 42.3745 162.44 42.5892C162.645 42.6868 166.039 42.6966 166.459 42.5892C166.595 42.5599 166.673 42.4623 166.673 42.3354C166.673 42.2281 166.761 41.9743 166.859 41.7791C167.112 41.3009 167.493 40.4127 167.61 40.0516L167.698 39.7588L171.628 39.7295C175.13 39.71 175.549 39.7197 175.549 39.8564C175.549 39.9442 175.637 40.1785 175.735 40.3737C176.017 40.9007 176.408 41.7791 176.476 42.0134C176.505 42.1207 176.651 42.3159 176.798 42.4526C177.061 42.6868 177.061 42.6868 179.031 42.6575L180.992 42.6283L181.06 42.0524C181.118 41.5742 181.089 41.418 180.923 41.1057C180.816 40.9007 180.563 40.3834 180.367 39.954C180.172 39.5245 179.812 38.7535 179.568 38.246C179.334 37.7384 178.895 36.8112 178.602 36.1963C178.319 35.5815 177.997 34.8983 177.89 34.6835C176.807 32.4192 176.173 31.0723 175.266 29.1203C174.993 28.5347 174.662 27.8417 174.525 27.5977C174.389 27.3439 174.281 27.0707 174.281 26.9926C174.281 26.9047 174.145 26.7388 173.979 26.6217C173.716 26.4363 173.52 26.407 172.34 26.3582C170.526 26.2996 169.551 26.3875 169.297 26.6607C169.2 26.7681 168.917 27.2659 168.683 27.7441C168.058 29.0324 166.722 31.8726 166.147 33.1219C165.952 33.5514 165.747 33.9808 165.698 34.0784C165.542 34.3517 165.445 34.5567 165.181 35.1227C165.129 35.2348 165.048 35.407 164.953 35.6086L164.953 35.6095L164.948 35.619C164.797 35.9421 164.61 36.3387 164.45 36.6844C164.303 37.0002 164.113 37.3981 163.937 37.7678L163.936 37.7705C163.797 38.0625 163.666 38.3366 163.572 38.5388C163.468 38.7598 163.333 39.0465 163.197 39.3356L163.19 39.3517L163.185 39.3606L163.184 39.3625L163.183 39.3662C163.041 39.6671 162.899 39.9681 162.792 40.198ZM173.228 34.5859C173.335 34.8007 173.403 35.113 173.384 35.2691L173.355 35.5619L171.589 35.5912C169.59 35.6205 169.541 35.601 169.882 34.9471C169.99 34.7519 170.185 34.3224 170.331 34.0003L170.453 33.7287L170.453 33.7277C170.796 32.9617 170.994 32.5191 171.16 32.1947C171.248 32.0093 171.355 31.736 171.394 31.5896C171.423 31.4334 171.501 31.3163 171.55 31.3163C171.648 31.3163 172.135 31.9898 172.135 32.1362C172.135 32.185 172.253 32.468 172.389 32.7706C172.535 33.0731 172.74 33.5123 172.847 33.7563C172.915 33.9095 173.009 34.1128 173.094 34.2959C173.144 34.4045 173.192 34.506 173.228 34.5859ZM198.285 42.3452C198.139 42.1598 197.953 41.8962 197.885 41.7596C197.817 41.6229 197.426 41.0081 197.027 40.3932L196.916 40.2235L196.916 40.223L196.913 40.219L196.913 40.2182C196.543 39.6504 196.155 39.0527 196.022 38.8316C195.554 38.08 195.31 37.7677 195.154 37.7189C194.891 37.6311 191.009 37.6116 190.892 37.6896C190.794 37.7482 190.765 38.3631 190.765 40.2077V42.638L188.502 42.6185L186.229 42.5892L186.171 42.2964C186.073 41.8279 186.073 27.0609 186.171 26.7974C186.356 26.3191 186.824 26.2118 188.912 26.1922C189.955 26.1727 191.34 26.1239 191.984 26.0654C194.071 25.8799 195.944 25.8311 196.714 25.9482C197.114 26.0068 197.807 26.0946 198.256 26.1434C198.704 26.1825 199.114 26.2703 199.182 26.3191C199.25 26.3679 199.475 26.4655 199.689 26.5339C200.762 26.8755 201.884 27.871 202.372 28.9251L202.684 29.6083L202.693 31.8141C202.693 33.8442 202.684 34.0491 202.498 34.4005C202.391 34.6152 202.255 34.9373 202.186 35.1325C202.069 35.4839 200.987 36.6551 200.616 36.821C200.509 36.8698 200.421 36.9479 200.421 36.9967C200.421 37.1821 200.723 37.7872 201.162 38.4607C201.416 38.8511 201.777 39.4172 201.962 39.71C202.147 40.0028 202.469 40.5005 202.674 40.8129C203.006 41.3106 203.054 41.4473 203.054 41.9646C203.054 42.3452 203.015 42.5599 202.937 42.5892C202.869 42.6087 201.855 42.6478 200.684 42.6575L198.558 42.6868L198.285 42.3452ZM197.105 33.2781C197.241 33.2195 197.485 33.0634 197.641 32.9267C197.914 32.7022 197.934 32.6437 197.973 31.8433C198.002 31.043 197.992 30.9942 197.739 30.7307C197.329 30.3012 196.071 30.106 194.266 30.1744C192.364 30.2524 191.077 30.3988 190.911 30.5355C190.716 30.7014 190.697 33.1122 190.892 33.239C191.223 33.4538 196.597 33.4928 197.105 33.2781ZM114.492 26.7193C114.355 26.9828 114.355 42.189 114.492 42.4526C114.589 42.6282 114.716 42.638 116.774 42.638C118.686 42.638 118.969 42.6185 119.086 42.4721C119.193 42.355 119.232 41.7889 119.252 40.0613C119.271 38.7242 119.33 37.758 119.388 37.6896C119.466 37.592 119.934 37.5823 121.407 37.6311C123.104 37.6799 123.348 37.7092 123.602 37.8848C123.748 37.9922 123.924 38.1972 123.992 38.3338C124.05 38.4704 124.255 38.8316 124.45 39.1244C124.549 39.2728 124.691 39.494 124.84 39.7282L124.841 39.7297C124.987 39.9569 125.14 40.1963 125.27 40.3932C125.38 40.5671 125.525 40.7927 125.676 41.0267C125.872 41.3309 126.077 41.6492 126.225 41.8865L126.723 42.638L128.976 42.6185L131.219 42.5892L131.249 42.0426C131.278 41.4082 131.229 41.2618 130.595 40.2956C129.717 38.9584 128.635 37.1919 128.635 37.0845C128.635 37.0357 128.82 36.86 129.054 36.7039C129.678 36.2647 130.215 35.6303 130.497 34.9763C131.024 33.7758 131.258 31.4822 130.946 30.6331C130.858 30.3891 130.78 29.9499 130.78 29.6571C130.78 29.1691 130.732 29.0324 130.293 28.3785C129.912 27.7929 129.659 27.5294 129.083 27.139C128.683 26.8559 128.303 26.6315 128.225 26.6315C128.157 26.6315 127.903 26.5339 127.659 26.4265C127.415 26.3191 126.869 26.1825 126.44 26.1337C126.011 26.0849 125.357 25.997 124.977 25.9385C124.245 25.8311 122.207 25.8799 120.198 26.0654C119.554 26.1239 118.169 26.1825 117.125 26.1923C115.106 26.2118 114.726 26.2801 114.492 26.7193ZM126.157 31.043C126.44 31.9019 126.235 32.7218 125.621 33.1219C125.241 33.3754 125.221 33.3757 123.121 33.4049L123.114 33.405C120.998 33.444 119.915 33.4147 119.495 33.3171C119.271 33.2683 119.271 33.239 119.271 31.9019C119.271 30.9552 119.31 30.5257 119.388 30.4769C119.739 30.2622 123.748 30.067 124.528 30.2329L124.794 30.2889C125.634 30.4652 125.884 30.5178 126.004 30.6719C126.056 30.7374 126.083 30.8212 126.123 30.9407L126.123 30.9408C126.133 30.9723 126.144 31.0062 126.157 31.043ZM137.12 34.6347V26.6315L137.393 26.5143C137.569 26.4363 138.291 26.3875 139.51 26.3875C141.1 26.3875 141.412 26.4167 141.626 26.5534C141.763 26.6412 142.133 27.0999 142.455 27.5782C142.726 27.9725 143.287 28.7954 143.795 29.5407L144.074 29.9499C144.64 30.7795 145.528 32.0873 146.045 32.8584C146.562 33.6197 147.02 34.2443 147.049 34.2443C147.088 34.2346 147.361 33.8539 147.674 33.3854C147.976 32.917 148.824 31.6579 149.556 30.5843L150.006 29.9244C150.59 29.0679 151.135 28.268 151.321 27.9881C151.546 27.6367 151.936 27.1292 152.17 26.8657L152.609 26.3875H154.647C156.247 26.3875 156.735 26.4167 156.861 26.5241C157.008 26.6412 157.017 27.3049 156.998 34.625L156.969 42.5892H154.677H152.385L152.336 38.4021C152.306 35.5229 152.258 34.2053 152.18 34.176C152.121 34.1565 151.829 34.5078 151.516 34.9471C151.214 35.396 150.726 36.089 150.434 36.4891C150.141 36.8893 149.644 37.592 149.322 38.0508C148.464 39.2513 148.415 39.3098 148.054 39.4172C147.878 39.466 147.313 39.4953 146.815 39.4855C145.957 39.4562 145.889 39.4465 145.606 39.1732C145.44 39.0072 145.06 38.529 144.757 38.0996C144.465 37.6701 143.987 36.9869 143.694 36.5867C143.401 36.1866 142.894 35.4643 142.572 34.9959C142.251 34.5274 141.948 34.1662 141.899 34.1955C141.841 34.2346 141.802 35.8255 141.802 38.2557C141.802 40.8324 141.763 42.3257 141.704 42.4526C141.607 42.6282 141.47 42.638 139.363 42.638H137.12V34.6347ZM213.949 36.5379C213.969 39.7588 213.998 42.4525 214.027 42.5209C214.056 42.6087 214.622 42.638 216.368 42.638H218.66V36.7331C218.66 31.004 218.67 30.8283 218.845 30.7307C218.962 30.6721 220.074 30.6331 221.752 30.6331C223.742 30.6331 224.532 30.594 224.707 30.5062L224.951 30.3793L224.98 28.5639L225 26.7388L224.736 26.5631C224.493 26.3972 223.976 26.3874 216.953 26.3582C212.827 26.3386 209.16 26.3582 208.819 26.3874C208.36 26.4362 208.136 26.5143 207.97 26.6802C207.755 26.895 207.756 26.9535 207.765 28.5639C207.785 30.0279 207.804 30.2622 207.96 30.4086C208.116 30.5648 208.419 30.5843 211.033 30.6331L213.93 30.6819L213.949 36.5379Z" fill="#2C49AE"/>
<path fill-rule="evenodd" clip-rule="evenodd" d="M14.8431 26.9985C14.5672 26.265 14.5593 26.0757 14.5593 15.9712V6.07965L15.2294 5.61426C15.5999 5.36185 16.0965 5.05422 16.3408 4.92801C16.5773 4.80969 16.8217 4.65193 16.8769 4.58883C16.9951 4.43895 20.3689 2.71938 20.5344 2.71938C20.5975 2.71938 20.9522 2.58528 21.3148 2.41963C21.9218 2.14356 24.1526 1.38631 25.1616 1.11023C26.273 0.810489 27.3451 0.57385 27.755 0.53441C27.9993 0.510747 28.3383 0.447643 28.5117 0.384539C28.6851 0.329323 29.3236 0.242555 29.9306 0.195227C30.5376 0.1479 31.3022 0.0847957 31.6254 0.0532438C32.3979 -0.0177479 35.1095 -0.0177479 35.9609 0.0532438C36.3314 0.0847957 37.0487 0.140012 37.5532 0.163675C38.2784 0.211003 38.507 0.250443 38.6016 0.352987C38.704 0.471306 38.7198 1.30743 38.704 7.49949L38.6804 14.5119L34.6602 14.5592C30.8686 14.5987 30.6006 14.6144 29.97 14.7722C29.5995 14.8669 29.2133 14.9378 29.1029 14.93C28.9926 14.9221 28.8507 14.9457 28.7876 14.9852C28.63 15.0877 28.0072 15.2534 27.7629 15.2613C27.6525 15.2613 27.4239 15.3322 27.2505 15.419C27.0771 15.5058 26.88 15.5768 26.8012 15.5768C26.7223 15.5768 26.3913 15.703 26.076 15.8528C25.7528 16.0027 25.4217 16.1289 25.3429 16.1289C25.2562 16.1289 25.1064 16.2157 25.0039 16.3261C24.9014 16.4366 24.7674 16.5075 24.7123 16.4918C24.594 16.4444 23.7348 16.8546 23.585 17.036C23.5299 17.107 23.2145 17.2885 22.8835 17.4462C22.5051 17.6276 22.111 17.8958 21.7957 18.1877C21.5277 18.448 21.2754 18.6531 21.2281 18.6531C21.0468 18.6531 20.1876 19.3945 19.1944 20.4121C18.6189 21.0037 18.146 21.5243 18.146 21.5716C18.146 21.619 18.012 21.8004 17.8464 21.9897C17.3104 22.5734 16.4197 23.9853 15.7339 25.3421C15.3713 26.0599 15.0717 26.7225 15.0717 26.8171C15.0717 26.9039 15.0402 27.0301 14.9929 27.0932C14.9377 27.18 14.9062 27.1642 14.8431 26.9985ZM4.11477 50.1576C4.15418 50.2759 4.27242 50.4021 4.36701 50.4416C4.47737 50.481 8.26895 50.5047 13.6686 50.4968C23.2067 50.481 23.4274 50.4731 22.6864 50.1655C22.5288 50.0945 22.245 49.9052 22.0637 49.7395C21.8824 49.5739 21.504 49.2899 21.2202 49.1006C20.9364 48.9113 20.5502 48.6037 20.3531 48.4144C20.1561 48.2251 19.7383 47.8307 19.4151 47.5388C19.0998 47.247 18.5401 46.6159 18.1854 46.1348C17.8228 45.6615 17.4681 45.2197 17.3971 45.1566C17.3262 45.1014 17.2158 44.92 17.1528 44.7701C17.0897 44.6124 16.932 44.3836 16.8059 44.2495C16.6877 44.1233 16.53 43.8867 16.4591 43.7368C16.396 43.5869 16.2857 43.374 16.2226 43.2635C15.9309 42.7666 14.9929 40.7473 14.9929 40.6211C14.9929 40.5422 14.8825 40.2503 14.7485 39.9664C14.6224 39.6824 14.4884 39.2722 14.4726 39.0514C14.449 38.8305 14.3623 38.4913 14.2834 38.2941C14.2125 38.0969 14.1258 37.6946 14.0943 37.3949C14.0627 37.103 13.9839 36.6219 13.913 36.33C13.7474 35.6516 13.7317 31.8891 13.8814 31.329C14.0076 30.9031 13.9445 30.6664 13.4794 29.7436C13.1168 29.0257 12.7542 27.9451 12.6675 27.3298C12.636 27.0932 12.5571 26.7619 12.502 26.5884C12.4074 26.3359 12.3916 24.711 12.3916 17.2411C12.3916 10.6941 12.368 8.16996 12.3049 8.10685C12.1788 7.98064 11.895 8.16996 10.8308 9.11651C9.67995 10.1498 9.41982 10.4101 8.68673 11.2699C8.51777 11.4679 8.31218 11.7068 8.12178 11.928L8.12135 11.9285L8.12098 11.929C7.94749 12.1306 7.78667 12.3174 7.67775 12.4452C7.25996 12.9343 6.44016 14.0386 5.43118 15.4821C5.13952 15.9002 4.57985 16.8704 4.1936 17.6276C3.96976 18.0577 3.74846 18.4852 3.58457 18.8018L3.58444 18.8021L3.58397 18.803C3.45959 19.0433 3.36838 19.2195 3.33438 19.2841C3.05849 19.7653 2.4594 21.1457 2.4594 21.2798C2.4594 21.3507 2.3254 21.7057 2.15198 22.0607C1.86032 22.6917 1.64748 23.307 1.40312 24.293C1.34006 24.5533 1.20605 25.0187 1.11934 25.3184C0.780387 26.4069 0.512375 27.6848 0.4099 28.5919C0.370487 28.9626 0.299543 29.3728 0.244364 29.499C0.149771 29.7357 0 32.5674 0 34.1135C0 35.2888 0.134006 38.3257 0.189185 38.4203C0.220715 38.4598 0.299543 38.7989 0.362604 39.1618C0.70156 41.047 1.15087 43.0032 1.31641 43.3424C1.37159 43.4528 1.44253 43.6974 1.47406 43.8946C1.5056 44.0918 1.56077 44.289 1.59231 44.3284C1.63172 44.3757 1.71055 44.6045 1.77361 44.8411C1.99432 45.6378 2.15986 46.0559 2.79047 47.3811C3.12943 48.0989 3.40533 48.7378 3.40533 48.7851C3.40533 48.8403 3.47627 48.9665 3.56298 49.077C3.64969 49.1874 3.72063 49.3294 3.72063 49.3925C3.72063 49.4556 3.79158 49.6055 3.87829 49.7317C3.965 49.85 4.06747 50.0393 4.11477 50.1576ZM33.3044 62.1079C32.8393 62.0685 32.4688 61.9896 32.2639 61.8792C32.0905 61.7924 31.9092 61.7214 31.8698 61.7214C31.6569 61.7214 30.8765 61.114 30.3563 60.5461C29.9306 60.0807 29.7414 59.7967 29.5995 59.4181C29.2685 58.5504 29.1029 57.7143 29.1029 56.9018C29.1029 56.4838 29.0714 55.9553 29.0241 55.7265C28.9216 55.1823 28.0466 53.4154 27.6683 52.9736C27.5027 52.7843 27.3924 52.595 27.4239 52.5477C27.5027 52.4215 28.5748 52.5477 28.8822 52.7212C29.0714 52.8317 29.3079 52.8711 29.7572 52.879C30.1907 52.8869 30.4824 52.9342 30.7346 53.0446C31.0894 53.2024 31.247 53.2024 46.4449 53.2024C54.8793 53.2024 61.8082 53.2261 61.8398 53.2497C61.8634 53.2734 61.7058 53.5495 61.4772 53.8571L61.4422 53.9071C61.2243 54.2186 60.933 54.6349 60.7835 54.8667C60.618 55.1113 60.1056 55.7186 59.6405 56.2077C59.1833 56.7046 58.6709 57.2884 58.5054 57.5013C58.198 57.9115 57.8905 58.2191 57.5673 58.4321C57.4649 58.5031 56.9288 58.9764 56.3849 59.497C55.841 60.0097 55.2341 60.5303 55.037 60.6565C54.8399 60.7748 54.4694 61.0509 54.2093 61.2639C53.9492 61.4769 53.5393 61.7766 53.3028 61.9265L52.8771 62.1947L43.4494 62.1868C38.2705 62.1789 33.7064 62.1473 33.3044 62.1079ZM32.2166 67.9529C32.0432 67.9134 31.5229 67.8819 31.0578 67.8819C30.5533 67.874 29.8991 67.8109 29.4182 67.7162C28.9768 67.6295 28.4881 67.5585 28.3304 67.5585C28.023 67.5585 26.9746 67.3218 25.0039 66.817C23.853 66.5173 22.1977 65.9572 21.3779 65.5786C21.0074 65.413 20.6527 65.271 20.5896 65.271C20.4083 65.271 17.137 63.6224 16.8611 63.3857C16.7192 63.2674 16.5143 63.1333 16.396 63.086C16.1989 62.9992 15.6156 62.6206 14.3229 61.7451C14.0548 61.5715 13.7947 61.3664 13.7395 61.3033C13.6844 61.2323 13.4558 61.0667 13.235 60.9247C13.0065 60.7827 12.5966 60.4514 12.3128 60.1911C12.029 59.9229 11.4457 59.4181 11.0121 59.0631C10.1056 58.3217 9.48289 57.6985 8.72615 56.752C8.43449 56.3812 7.97729 55.8527 7.71716 55.5688C7.05501 54.8352 6.20368 53.7072 5.94355 53.2182L5.93238 53.1958C5.73837 52.8077 5.73349 52.7979 5.88049 52.6818C6.0145 52.5871 7.21267 52.5713 14.2204 52.5713C18.9973 52.5713 22.5524 52.6029 22.7416 52.6423C22.9229 52.6818 23.3013 52.7607 23.585 52.8159C24.6334 53.0131 25.3981 53.5494 26.1548 54.5907C26.7618 55.4426 26.9431 56.0973 27.0455 57.8563C27.1244 59.1972 27.2663 59.6784 27.8653 60.7354C28.3462 61.5794 28.8349 62.242 29.2133 62.5575C29.6626 62.9361 30.1513 63.2753 30.4824 63.441C30.5429 63.4713 30.6265 63.5121 30.7208 63.5582C30.8965 63.6441 31.1092 63.7481 31.2785 63.8354C32.2165 64.3007 32.2323 64.3008 43.0912 64.3402L43.0947 64.3402C46.0428 64.356 48.518 64.3954 48.5968 64.4349C48.8018 64.5295 48.7624 64.7109 48.518 64.7583C48.3919 64.7898 47.8164 65.0343 47.2331 65.3183C46.6498 65.5944 46.1059 65.8231 46.0271 65.8231C45.9482 65.8231 45.7512 65.8941 45.5778 65.9809C45.4043 66.0677 45.2152 66.1386 45.1442 66.1386C45.0811 66.1386 44.821 66.2096 44.5767 66.2885C44.3244 66.3753 43.9145 66.4857 43.6623 66.5331C43.41 66.5804 43.1105 66.675 42.9922 66.7381C42.874 66.8012 42.7085 66.8486 42.6217 66.8486C42.535 66.8486 42.3301 66.9196 42.1646 67.0063C41.999 67.0931 41.6443 67.1878 41.3763 67.2193C41.1083 67.243 40.8166 67.314 40.7299 67.3692C40.6432 67.4244 40.2885 67.4875 39.9416 67.519C39.5948 67.5506 39.1297 67.6216 38.909 67.6847C38.1917 67.8898 32.9024 68.0949 32.2166 67.9529ZM40.8087 13.9045C40.856 14.3147 40.8954 14.4172 41.0294 14.4725C41.2501 14.5592 61.422 14.575 61.5639 14.4882C61.7609 14.3541 61.5008 13.9124 60.413 12.5478C59.136 10.9465 57.252 9.01398 56.2588 8.2804C56.0854 8.15419 55.7307 7.84656 55.4705 7.60203C55.2104 7.35751 54.8399 7.05776 54.6428 6.93944C54.4458 6.82112 54.1462 6.58448 53.9728 6.41884C53.7994 6.25319 53.4999 6.0481 53.3028 5.96922C53.1057 5.88246 52.8771 5.74047 52.7904 5.63793C52.7037 5.54327 52.4988 5.3934 52.3332 5.31452C52.1756 5.22775 51.7893 4.999 51.4819 4.8018C50.7567 4.32853 47.3987 2.6405 47.1937 2.6405C47.107 2.6405 46.8074 2.53007 46.5316 2.39597C46.0349 2.15145 44.9629 1.76494 44.3638 1.60718C44.1983 1.56774 43.9697 1.48097 43.8514 1.42575C43.7411 1.37054 43.4179 1.27588 43.1341 1.22067C42.8503 1.17334 42.5114 1.07868 42.3774 1.01558C42.0542 0.873595 41.0767 0.794715 40.927 0.897259C40.8245 0.968251 40.8087 1.77282 40.7851 7.19186C40.7693 10.6073 40.7851 13.6284 40.8087 13.9045Z" fill="#2C49AE"/>
</svg>
