<svg fill="none" height="68" viewBox="0 0 225 68" width="225" xmlns="http://www.w3.org/2000/svg"><g clip-rule="evenodd" fill="#fff" fill-rule="evenodd"><path d="m33.7813 43.0284c-1.2972-.3709-1.6386-.4978-2.2238-.7711-.3609-.1756-.9363-.5465-1.2874-.8393-.8291-.6735-1.8045-1.9813-1.8045-2.4108 0-.0683-.0877-.2928-.195-.4977-.1073-.1952-.1951-.5271-.1951-.7418 0-.205-.078-.7418-.1658-1.1907-.2048-1.0639-.2048-2.8988 0-4.0407.0878-.4783.1658-1.0053.1658-1.1712 0-.3611.4974-1.5909.8973-2.2448.4097-.6637.9949-1.2591 1.6581-1.7178.3024-.205.5853-.3807.6243-.3807s.2438-.0878.4681-.1854c.8779-.4099 1.8922-.6832 2.5457-.693.2731 0 .8876-.0683 1.3655-.1464 1.1314-.1854 1.8629-.1854 2.9358.0098.478.0878 1.3753.1659 1.9898.1854.7998.0098 1.2289.0684 1.5118.1855.2145.0878.6632.1952 1.0046.2245l.6047.0585-.0195 2.1082-.0293 2.1082-.5852-.0293c-.3218-.0195-.868-.1171-1.2192-.2147-.3511-.0976-1.1411-.2343-1.7556-.2928-.6145-.0586-1.4045-.1464-1.7557-.1952-.6534-.0976-2.1945.0097-2.8382.1952-.1854.0585-.4487.0976-.6048.0976-.3121 0-1.2094.488-1.502.8003-.1073.1269-.2829.3904-.3999.5954-.2048.3513-.2146.488-.2146 2.7133v2.3424l.2634.4587c.3804.6832.6047.8882 1.2972 1.22l.634.3124h2.8285c2.4481 0 2.8871-.0293 3.2674-.1757.2439-.0879.7511-.205 1.1315-.2538.3803-.0488.829-.1562 1.0046-.244.1658-.0878.3511-.1366.3999-.1074.156.0976.1268 4.2945-.0195 4.4116-.0683.0586-.4877.1269-.9266.1562-.4389.039-.9656.1366-1.1705.2342-.3316.1562-.7607.1757-3.8819.1952-1.9312.0098-3.638-.0195-3.8039-.0683zm39.8434.0391c-.8193-.0781-2.6042-.3612-2.8481-.449l-.2731-.0976v-7.8764-7.8861l.2341-.2148c.3024-.2928 1.5411-.4392 2.8871-.3513.5071.0292 1.2387.0195 1.6093-.0391.3804-.0488 1.6288-.1464 2.7798-.2147 1.6288-.0878 2.2921-.0878 2.9748.0098l.138.0166c.478.0575 1.1086.1333 1.4811.1688.6535.0683 1.6093.3514 2.0385.6051.078.0488.2536.1464.3901.205.9364.4587 1.7557 1.5811 1.7557 2.4205 0 .2733.0682.6246.1463.771.2633.5271.2828 1.0249.0585 1.913-.2731 1.0444-.634 1.6007-1.3265 2.0204-.2926.1756-.5364.3513-.5364.3806 0 .039.3511.2928.7803.5661.9558.6246 1.2192.9565 1.5313 1.9325.2633.8296.2536 1.4835-.0195 2.1472-.0781.1854-.1463.527-.1463.7418 0 .4685-.4682 1.2297-1.112 1.7958-.4291.3807-.5462.449-1.3264.7906-.0699.0304-.136.0594-.199.087h-.0001c-.3369.1476-.585.2563-.8419.3366-.718.2243-1.5053.227-4.4925.2374l-.7576.0027c-2.5164.0097-4.7402 0-4.9255-.0195zm9.0025-4.4214c.1951-.1171.4487-.3513.556-.5075.2048-.2733.2048-.2928.039-.5758-.1366-.2245-.3219-.3319-.8583-.5076-.6633-.2147-.8291-.2244-3.8625-.2244h-3.1699l-.0292.7808-.0002.0032c-.0267.6682-.0385.9635.1032 1.1022.1122.1098.3207.1212.6946.1416l.0412.0023c.4096.0195 1.9604.0292 3.443.0195 2.6042-.0098 2.7017-.0195 3.0431-.2343zm-.5169-6.3538c.4584-.2342.6827-.5368.6827-.9077 0-.3611-.2828-.8393-.5364-.9077-1.6094-.3904-4.4769-.4196-6.5349-.0585l-.3902.0683-.0292.8687c-.0195.4782-.0098.9272.0195 1.0052.039.0976.673.1269 3.2284.1269 2.9748 0 3.1992-.0097 3.5601-.1952zm-27.2027 10.2188c.0585.0586.195.1269.3121.1464.117.0195 1.0826.0195 2.136 0l.024-.0004c1.8492-.0289 1.9077-.0298 2.0243-.2436.0877-.1562.1365-1.0053.1755-2.9475.039-2.0985.0781-2.7914.1854-2.9769.078-.1366.4389-.6832.8095-1.22s.8681-1.259 1.1021-1.6104c.2341-.3514.673-.9858.9754-1.4152.3024-.4295.79-1.1322 1.0826-1.5616.2829-.4295.7218-1.0639.9656-1.4152l.016-.023c.9792-1.4122 1.0082-1.454 1.0082-2.0364v-.0108c0-.2753 0-.4569-.086-.5767-.1669-.2324-.6573-.2324-2.0988-.2324-1.0241 0-1.9702.0293-2.1068.0684-.3316.0976-.4974.3123-2.4872 3.4941-1.3557 2.1667-1.541 2.44-1.7458 2.4986-.1073.039-.2146.0195-.2341-.0391-.0293-.0976-.0976-.2147-1.9702-3.1915-1.4923-2.3717-1.5704-2.4889-1.8435-2.6645-.4096-.2733-3.8721-.2831-4.3013-.0196-.1073.0684-.1463.2733-.1365.732.0097.5173.0585.7028.2438.9565.2731.3709.8778 1.2493 1.9995 2.8988.4584.6734 1.0729 1.5714 1.3752 2.0008.2601.3693.7871 1.1358 1.2584 1.8212l.2242.326.9363 1.3664.0293 2.8793c.0195 1.7568.0682 2.9182.1268 2.9963zm38.6631.0976-.2438-.0878.0195-7.8569.0292-7.8666.2731-.205c.2731-.2049.3024-.2049 7.6473-.2049 7.168 0 7.363 0 7.5.1854.107.1464.137.5856.137 1.9325 0 1.6104-.01 1.747-.196 1.9325-.185.1854-.321.1952-5.247.1952-.454 0-.87-.0006-1.252-.0011-3.1031-.0043-3.9102-.0054-4.0938.3323-.0645.1188-.052.2793-.0351.4964v.0005l.0001.0003v.0003.0005c.006.0773.0126.1618.0164.2542l.0293.7222 4.1061.0488c3.307.039 4.136.0781 4.272.1854.137.1172.156.3612.137 2.0985l-.03 1.9617-4.242.0488-4.2431.0488-.0293.6637c-.0195.41.0195.7223.0878.8101.0975.1171.9461.1367 5.2476.1367 3.053 0 5.189.039 5.276.0976.205.1268.274 3.6698.079 3.9235-.118.1659-.625.1757-7.569.1952-4.087.0195-7.5398-.0097-7.6763-.0488zm69.2213-2.4107c-.673 1.425-.781 2.1765-.351 2.3912.204.0976 3.599.1074 4.018 0 .137-.0293.215-.1269.215-.2538 0-.1073.087-.3611.185-.5563.254-.4782.634-1.3664.751-1.7275l.088-.2928 3.93-.0293c3.502-.0195 3.921-.0098 3.921.1269 0 .0878.088.3221.186.5173.283.527.673 1.4054.741 1.6397.029.1073.176.3025.322.4392.263.2342.263.2342 2.233.2049l1.961-.0292.068-.5759c.059-.4782.029-.6344-.136-.9467-.108-.205-.361-.7223-.556-1.1517-.195-.4295-.556-1.2005-.8-1.708-.234-.5076-.673-1.4348-.966-2.0497-.283-.6148-.604-1.298-.712-1.5128-1.082-2.2643-1.716-3.6112-2.623-5.5632-.274-.5856-.605-1.2786-.742-1.5226-.136-.2538-.244-.527-.244-.6051 0-.0879-.136-.2538-.302-.3709-.263-.1854-.458-.2147-1.639-.2635-1.814-.0586-2.789.0293-3.043.3025-.097.1074-.38.6052-.614 1.0834-.624 1.2883-1.961 4.1285-2.536 5.3778-.195.4295-.4.8589-.449.9565-.156.2733-.253.4783-.517 1.0443-.052.1121-.133.2843-.227.4859l-.001.0009-.004.0095c-.152.3231-.338.7197-.499 1.0654-.147.3158-.337.7137-.513 1.0834l-.001.0027c-.139.292-.269.5661-.364.7683-.103.221-.238.5077-.375.7968l-.007.0161-.004.0089-.001.0019-.002.0037c-.142.3009-.284.6019-.391.8318zm10.436-5.6121c.107.2148.176.5271.156.6832l-.029.2928-1.766.0293c-1.999.0293-2.048.0098-1.706-.6441.107-.1952.302-.6247.448-.9468l.122-.2716v-.001c.343-.766.541-1.2086.707-1.533.088-.1854.195-.4587.234-.6051.03-.1562.108-.2733.156-.2733.098 0 .586.6735.586.8199 0 .0488.117.3318.253.6344.147.3025.351.7417.459.9857.067.1532.161.3565.246.5396.051.1086.098.2101.134.29zm25.057 7.7593c-.146-.1854-.332-.449-.4-.5856-.068-.1367-.458-.7515-.858-1.3664l-.111-.1697v-.0005l-.003-.004v-.0008c-.369-.5678-.758-1.1655-.891-1.3866-.468-.7516-.712-1.0639-.868-1.1127-.263-.0878-4.145-.1073-4.262-.0293-.098.0586-.127.6735-.127 2.5181v2.4303l-2.263-.0195-2.272-.0293-.059-.2928c-.097-.4685-.097-15.2355 0-15.499.185-.4783.654-.5856 2.741-.6052 1.043-.0195 2.428-.0683 3.072-.1268 2.087-.1855 3.96-.2343 4.731-.1172.4.0586 1.092.1464 1.541.1952.448.0391.858.1269.926.1757.069.0488.293.1464.508.2148 1.072.3416 2.194 1.3371 2.682 2.3912l.312.6832.01 2.2058c0 2.0301-.01 2.235-.195 2.5864-.108.2147-.244.5368-.313.732-.117.3514-1.199 1.5226-1.57 1.6885-.107.0488-.195.1269-.195.1757 0 .1854.302.7905.741 1.464.254.3904.615.9565.8 1.2493s.507.7905.712 1.1029c.332.4977.381.6344.381 1.1517 0 .3806-.04.5953-.118.6246-.068.0195-1.082.0586-2.253.0683l-2.126.0293zm-1.18-9.0671c.136-.0586.38-.2147.536-.3514.273-.2245.293-.283.332-1.0834.029-.8003.019-.8491-.234-1.1126-.41-.4295-1.668-.6247-3.472-.5563-1.902.078-3.19.2244-3.356.3611-.195.1659-.214 2.5767-.019 2.7035.331.2148 5.706.2538 6.213.0391zm-82.613-6.5588c-.136.2635-.136 15.4697 0 15.7333.098.1756.224.1854 2.282.1854 1.912 0 2.195-.0195 2.312-.1659.107-.1171.146-.6832.166-2.4108.019-1.3371.078-2.3033.136-2.3717.078-.0976.547-.1073 2.019-.0585 1.697.0488 1.941.0781 2.195.2537.146.1074.322.3124.39.449.059.1366.263.4978.458.7906.099.1484.241.3696.391.6038l.001.0015c.145.2272.298.4666.428.6635.11.1739.255.3995.406.6335.196.3042.401.6225.55.8598l.497.7515 2.253-.0195 2.243-.0293.03-.5466c.029-.6344-.02-.7808-.654-1.747-.878-1.3372-1.96-3.1037-1.96-3.2111 0-.0488.185-.2245.419-.3806.624-.4392 1.161-1.0736 1.444-1.7276.526-1.2005.76-3.4941.448-4.3432-.087-.244-.165-.6832-.165-.976 0-.488-.049-.6247-.488-1.2786-.381-.5856-.634-.8491-1.21-1.2395-.399-.2831-.78-.5075-.858-.5075-.068 0-.322-.0976-.566-.205-.243-.1074-.79-.244-1.219-.2928s-1.082-.1367-1.463-.1952c-.731-.1074-2.77-.0586-4.779.1269-.644.0585-2.029.1171-3.072.1269-2.019.0195-2.4.0878-2.634.527zm11.665 4.3237c.283.8589.078 1.6788-.536 2.0789-.38.2535-.4.2538-2.5.283l-.007.0001c-2.116.039-3.199.0097-3.618-.0879-.225-.0488-.225-.0781-.225-1.4152 0-.9467.039-1.3762.117-1.425.351-.2147 4.36-.4099 5.141-.244l.265.056c.84.1763 1.09.2289 1.211.383.051.0655.078.1493.118.2688v.0001c.01.0315.022.0654.034.1022zm10.963 3.5917v-8.0032l.273-.1172c.176-.078.898-.1268 2.117-.1268 1.59 0 1.902.0292 2.117.1659.136.0878.507.5465.829 1.0248.27.3943.832 1.2172 1.34 1.9625l.279.4092c.565.8296 1.453 2.1374 1.97 2.9085.517.7613.975 1.3859 1.005 1.3859.039-.0097.312-.3904.624-.8589.302-.4684 1.151-1.7275 1.882-2.8011l.45-.6599c.584-.8565 1.129-1.6564 1.316-1.9363.224-.3514.614-.8589.848-1.1224l.439-.4782h2.039c1.599 0 2.087.0292 2.214.1366.146.1171.156.7808.136 8.1009l-.029 7.9642h-2.292-2.292l-.049-4.1871c-.029-2.8792-.078-4.1968-.156-4.2261-.059-.0195-.351.3318-.663.7711-.303.4489-.79 1.1419-1.083 1.542-.293.4002-.79 1.1029-1.112 1.5617-.858 1.2005-.907 1.259-1.268 1.3664-.175.0488-.741.0781-1.239.0683-.858-.0293-.926-.039-1.209-.3123-.166-.166-.546-.6442-.849-1.0736-.292-.4295-.77-1.1127-1.063-1.5129-.292-.4001-.799-1.1224-1.121-1.5908-.322-.4685-.625-.8297-.673-.8004-.059.0391-.098 1.63-.098 4.0602 0 2.5767-.039 4.07-.097 4.1969-.098.1756-.235.1854-2.341.1854h-2.244zm76.829 1.9032c.02 3.2209.049 5.9146.078 5.983.03.0878.595.1171 2.341.1171h2.292v-5.9049c0-5.7291.01-5.9048.186-6.0024.117-.0586 1.228-.0976 2.906-.0976 1.99 0 2.78-.0391 2.955-.1269l.244-.1269.03-1.8154.019-1.8251-.263-.1757c-.244-.1659-.761-.1757-7.784-.2049-4.125-.0196-7.793 0-8.134.0292-.459.0488-.683.1269-.849.2928-.214.2148-.214.2733-.205 1.8837.02 1.464.039 1.6983.196 1.8447.156.1562.458.1757 3.072.2245l2.897.0488z"/><path d="m14.8431 26.9985c-.2759-.7335-.2838-.9228-.2838-11.0273v-9.89155l.6701-.46539c.3705-.25241.8671-.56004 1.1114-.68625.2365-.11832.4809-.27608.5361-.33918.1182-.14988 3.492-1.86945 3.6575-1.86945.0631 0 .4178-.1341.7804-.29975.607-.27607 2.8378-1.03332 3.8468-1.3094 1.1114-.299741 2.1835-.53638 2.5934-.57582.2443-.023663.5833-.086767.7567-.149871.1734-.055216.8119-.141984 1.4189-.189312.607-.047327 1.3716-.1104313 1.6948-.1419832.7725-.0709917 3.4841-.0709917 4.3355 0 .3705.0315519 1.0878.0867682 1.5923.1104312.7252.047328.9538.086768 1.0484.189312.1024.118319.1182.954443.1024 7.146503l-.0236 7.01241-4.0202.0473c-3.7916.0395-4.0596.0552-4.6902.213-.3705.0947-.7567.1656-.8671.1578-.1103-.0079-.2522.0157-.3153.0552-.1576.1025-.7804.2682-1.0247.2761-.1104 0-.339.0709-.5124.1577s-.3705.1578-.4493.1578c-.0789 0-.4099.1262-.7252.276-.3232.1499-.6543.2761-.7331.2761-.0867 0-.2365.0868-.339.1972-.1025.1105-.2365.1814-.2916.1657-.1183-.0474-.9775.3628-1.1273.5442-.0551.071-.3705.2525-.7015.4102-.3784.1814-.7725.4496-1.0878.7415-.268.2603-.5203.4654-.5676.4654-.1813 0-1.0405.7414-2.0337 1.759-.5755.5916-1.0484 1.1122-1.0484 1.1595 0 .0474-.134.2288-.2996.4181-.536.5837-1.4267 1.9956-2.1125 3.3524-.3626.7178-.6622 1.3804-.6622 1.475 0 .0868-.0315.213-.0788.2761-.0552.0868-.0867.071-.1498-.0947zm-10.72833 23.1591c.03941.1183.15765.2445.25224.284.11036.0394 3.90194.0631 9.30159.0552 9.5381-.0158 9.7588-.0237 9.0178-.3313-.1576-.071-.4414-.2603-.6227-.426-.1813-.1656-.5597-.4496-.8435-.6389s-.67-.4969-.8671-.6862c-.197-.1893-.6148-.5837-.938-.8756-.3153-.2918-.875-.9229-1.2297-1.404-.3626-.4733-.7173-.9151-.7883-.9782-.0709-.0552-.1813-.2366-.2443-.3865-.0631-.1577-.2208-.3865-.3469-.5206-.1182-.1262-.2759-.3628-.3468-.5127-.0631-.1499-.1734-.3628-.2365-.4733-.2917-.4969-1.2297-2.5162-1.2297-2.6424 0-.0789-.1104-.3708-.2444-.6547-.1261-.284-.2601-.6942-.2759-.915-.0236-.2209-.1103-.5601-.1892-.7573-.0709-.1972-.1576-.5995-.1891-.8992-.0316-.2919-.1104-.773-.1813-1.0649-.1656-.6784-.1813-4.4409-.0316-5.001.1262-.4259.0631-.6626-.402-1.5854-.3626-.7179-.7252-1.7985-.8119-2.4138-.0315-.2366-.1104-.5679-.1655-.7414-.0946-.2525-.1104-1.8774-.1104-9.3473 0-6.547-.0236-9.07114-.0867-9.13425-.1261-.12621-.4099.06311-1.4741 1.00966-1.15085 1.03329-1.41098 1.29359-2.14407 2.15339-.16896.198-.37455.4369-.56495.6581l-.00043.0005-.00037.0005c-.17349.2016-.33431.3884-.44323.5162-.41779.4891-1.23759 1.5934-2.24657 3.0369-.29166.4181-.85133 1.3883-1.23758 2.1455-.22384.4301-.44514.8576-.60903 1.1742l-.00013.0003-.00047.0009c-.12438.2403-.21559.4165-.24959.4811-.27589.4812-.87498 1.8616-.87498 1.9957 0 .0709-.134.4259-.30742.7809-.29166.631-.5045 1.2463-.74886 2.2323-.06306.2603-.19707.7257-.28378 1.0254-.338953 1.0885-.606965 2.3664-.70944 3.2735-.039413.3707-.110357.7809-.165536.9071-.094593.2367-.244364 3.0684-.244364 4.6145 0 1.1753.134006 4.2122.189185 4.3068.03153.0395.110358.3786.173419.7415.338956 1.8852.788266 3.8414.953806 4.1806.05518.1104.12612.355.15765.5522.03154.1972.08671.3944.11825.4338.03941.0473.11824.2761.1813.5127.22071.7967.38625 1.2148 1.01686 2.54.33896.7178.61486 1.3567.61486 1.404 0 .0552.07094.1814.15765.2919.08671.1104.15765.2524.15765.3155s.07095.213.15766.3392c.08671.1183.18918.3076.23648.4259zm29.18963 11.9503c-.4651-.0394-.8356-.1183-1.0405-.2287-.1734-.0868-.3547-.1578-.3941-.1578-.2129 0-.9933-.6074-1.5135-1.1753-.4257-.4654-.6149-.7494-.7568-1.128-.331-.8677-.4966-1.7038-.4966-2.5163 0-.418-.0315-.9465-.0788-1.1753-.1025-.5442-.9775-2.3111-1.3558-2.7529-.1656-.1893-.2759-.3786-.2444-.4259.0788-.1262 1.1509 0 1.4583.1735.1892.1105.4257.1499.875.1578.4335.0079.7252.0552.9774.1656.3548.1578.5124.1578 15.7103.1578 8.4344 0 15.3633.0237 15.3949.0473.0236.0237-.134.2998-.3626.6074l-.035.05c-.2179.3115-.5092.7278-.6587.9596-.1655.2446-.6779.8519-1.143 1.341-.4572.4969-.9696 1.0807-1.1351 1.2936-.3074.4102-.6149.7178-.9381.9308-.1024.071-.6385.5443-1.1824 1.0649-.5439.5127-1.1508 1.0333-1.3479 1.1595-.1971.1183-.5676.3944-.8277.6074s-.67.5127-.9065.6626l-.4257.2682-9.4277-.0079c-5.1789-.0079-9.743-.0395-10.145-.0789zm-1.0878 5.845c-.1734-.0395-.6937-.071-1.1588-.071-.5045-.0079-1.1587-.071-1.6396-.1657-.4414-.0867-.9301-.1577-1.0878-.1577-.3074 0-1.3558-.2367-3.3265-.7415-1.1509-.2997-2.8062-.8598-3.626-1.2384-.3705-.1656-.7252-.3076-.7883-.3076-.1813 0-3.4526-1.6486-3.7285-1.8853-.1419-.1183-.3468-.2524-.4651-.2997-.1971-.0868-.7804-.4654-2.0731-1.3409-.2681-.1736-.5282-.3787-.5834-.4418-.0551-.071-.2837-.2366-.5045-.3786-.2285-.142-.6384-.4733-.9222-.7336-.2838-.2682-.8671-.773-1.3007-1.128-.9065-.7414-1.52921-1.3646-2.28595-2.3111-.29166-.3708-.74886-.8993-1.00899-1.1832-.66215-.7336-1.51348-1.8616-1.77361-2.3506l-.01117-.0224c-.19401-.3881-.19889-.3979-.05189-.514.13401-.0947 1.33218-.1105 8.33991-.1105 4.7769 0 8.332.0316 8.5212.071.1813.0395.5597.1184.8434.1736 1.0484.1972 1.8131.7335 2.5698 1.7748.607.8519.7883 1.5066.8907 3.2656.0789 1.3409.2208 1.8221.8198 2.8791.4809.844.9696 1.5066 1.348 1.8221.4493.3786.938.7178 1.2691.8835.0605.0303.1441.0711.2384.1172.1757.0859.3884.1899.5577.2772.938.4653.9538.4654 11.8127.5048h.0035c2.9481.0158 5.4233.0552 5.5021.0947.205.0946.1656.276-.0788.3234-.1261.0315-.7016.276-1.2849.56-.5833.2761-1.1272.5048-1.206.5048-.0789 0-.2759.071-.4493.1578-.1735.0868-.3626.1577-.4336.1577-.0631 0-.3232.071-.5675.1499-.2523.0868-.6622.1972-.9144.2446-.2523.0473-.5518.1419-.6701.205-.1182.0631-.2837.1105-.3705.1105-.0867 0-.2916.071-.4571.1577-.1656.0868-.5203.1815-.7883.213-.268.0237-.5597.0947-.6464.1499s-.4414.1183-.7883.1498c-.3468.0316-.8119.1026-1.0326.1657-.7173.2051-6.0066.4102-6.6924.2682zm8.5921-54.0484c.0473.4102.0867.5127.2207.568.2207.0867 20.3926.1025 20.5345.0157.197-.1341-.0631-.5758-1.1509-1.9404-1.277-1.6013-3.161-3.53382-4.1542-4.2674-.1734-.12621-.5281-.43384-.7883-.67837-.2601-.24452-.6306-.54427-.8277-.66259-.197-.11832-.4966-.35496-.67-.5206-.1734-.16565-.4729-.37074-.67-.44962-.1971-.08676-.4257-.22875-.5124-.33129-.0867-.09466-.2916-.24453-.4572-.32341-.1576-.08677-.5439-.31552-.8513-.51272-.7252-.47327-4.0832-2.1613-4.2882-2.1613-.0867 0-.3863-.11043-.6621-.24453-.4967-.24452-1.5687-.63103-2.1678-.78879-.1655-.03944-.3941-.12621-.5124-.18143-.1103-.05521-.4335-.14987-.7173-.20508-.2838-.04733-.6227-.14199-.7567-.20509-.3232-.141985-1.3007-.220865-1.4504-.118321-.1025.070992-.1183.875561-.1419 6.294601-.0158 3.41544 0 6.43654.0236 6.71264z"/></g></svg>